<svg width="113" height="113" viewBox="0 0 113 113" fill="none" xmlns="http://www.w3.org/2000/svg">
<circle opacity="0.05" cx="56.5023" cy="56.5" r="56.5" fill="white"/>
<circle opacity="0.1" cx="56.0023" cy="56" r="50" fill="white"/>
<circle opacity="0.15" cx="56.5023" cy="56.5" r="42.5" fill="white"/>
<circle opacity="0.2" cx="56.5023" cy="56.5" r="29.5" fill="white"/>
<circle cx="56.0023" cy="56" r="19" fill="white"/>
<path d="M56.3521 57.3536C56.5474 57.1583 56.5474 56.8417 56.3521 56.6464L53.1702 53.4645C52.9749 53.2692 52.6583 53.2692 52.4631 53.4645C52.2678 53.6597 52.2678 53.9763 52.4631 54.1716L55.2915 57L52.4631 59.8284C52.2678 60.0237 52.2678 60.3403 52.4631 60.5355C52.6583 60.7308 52.9749 60.7308 53.1702 60.5355L56.3521 57.3536ZM36.9986 57.5L55.9986 57.5L55.9986 56.5L36.9986 56.5L36.9986 57.5Z" fill="#0A5088"/>
</svg>
